# xmcd CD database file
#
# Track frame offsets:
#	150
#	19525
#	40780
#	61986
#
# Disc length: 1324 seconds
#
# Revision: 3
# Processed by: cddbd v1.5.2PL0 Copyright (c) Steve Scherf et al.
# Submitted via: CDex 1.70beta2
#
DISCID=26052a04
DTITLE=Akeboshi - White reply
DYEAR=2003
DGENRE=JPop
TTITLE0=Tall boy
TTITLE1=Morning high
TTITLE2=White reply
TTITLE3=MONEY
EXTD=YEAR: 2003
EXTT0=
EXTT1=
EXTT2=
EXTT3=
PLAYORDER=
